<svg xmlns="http://www.w3.org/2000/svg" xmlns:xlink="http://www.w3.org/1999/xlink" width="100px" height="100px"><style type="text/css"><![CDATA[svg>svg:not(:target){display:none;}]]></style><desc><symbol id="html-logo"><path d="M 13.463403,58.859826 9.3387487,12.577751 H 54.661251 L 50.532493,58.852645 31.97231,64 Z" style="fill:#e44d26;stroke-width:0.51293397"/><path d="M 32,60.065477 46.997079,55.90573 50.525827,16.362468 H 32 Z" style="fill:#f16529;stroke-width:0.51293397"/><path d="M 32,33.527841 H 24.49172 L 23.973764,27.714556 H 32 V 22.038255 H 17.772677 l 0.135388,1.523222 1.394887,15.642151 H 32 Z m 0,14.74125 -0.02509,0.0063 -6.318527,-1.707403 -0.404105,-4.526576 h -5.695952 l 0.79488,8.912572 11.62268,3.228067 0.02616,-0.0077 z" style="fill:#ebebeb;stroke-width:0.51293397"/><path style="stroke-width:0.51293397" d="m 13.555714,0 h 2.883103 v 2.8504651 h 2.637976 V 0 h 2.883622 V 8.6304013 H 19.076793 V 5.7404342 H 16.439331 V 8.6304014 H 13.555714 Z M 25.751733,2.8622657 H 23.213245 V 0 h 7.961619 V 2.8622657 H 28.635355 V 8.6304013 H 25.751733 Z M 32.438468,0 h 3.006185 L 37.29441,3.032598 39.142127,0 h 3.007718 V 8.6304013 H 39.27751 V 4.3526542 l -1.9831,3.0685082 H 37.24413 L 35.259506,4.3526542 V 8.6304013 H 32.437947 V 0 Z m 11.146779,0 h 2.884136 v 5.777884 h 4.054907 v 2.8530302 h -6.939043 z"/><path d="m 31.980512,33.527841 v 5.675787 h 6.986738 l -0.658467,7.36165 -6.328271,1.708944 v 5.90512 l 11.631916,-3.224988 0.08512,-0.959389 1.333347,-14.943389 0.138466,-1.523735 h -1.529246 z m 0,-11.489586 v 5.676301 h 13.705264 l 0.113337,-1.275935 0.258972,-2.877144 0.135911,-1.523222 z" style="fill:#ffffff;stroke-width:0.51293397"/></symbol><symbol id="css-logo"><path d="m 44.859778,2.369181 h -3.762967 l 3.913302,4.246588 V 8.637396 H 36.950106 V 6.270253 h 3.912793 L 36.950106,2.023665 V 0 h 7.909672 z m -9.507812,0 h -3.762967 l 3.913303,4.246588 V 8.637396 H 27.441784 V 6.270253 h 3.913303 L 27.441784,2.023665 V 0 h 7.910181 z m -9.414552,0.09683 h -4.06058 v 3.705382 h 4.06058 V 8.6374 H 18.990397 V 0 h 6.947017 z" style="fill:#131313;stroke-width:0.50961095"/><path d="M 13.457042,58.85955 9.3307215,12.580256 H 54.669278 L 50.539391,58.85191 31.972226,64 Z" style="fill:#1572b6;stroke-width:0.50961095"/><path d="M 32.000765,60.06529 47.003201,55.90585 50.532766,16.364627 H 32.000765 Z" style="fill:#33a9dc;stroke-width:0.50961095"/><path d="m 32.000255,33.131336 h 7.510646 l 0.519294,-5.812113 h -8.02994 V 21.643177 H 46.233179 L 46.097113,23.165894 44.702308,38.80687 H 32.000255 Z" style="fill:#ffffff;stroke-width:0.50961095"/><path d="m 32.034399,47.87234 -0.02497,0.007 -6.321214,-1.7072 -0.404631,-4.52687 h -5.696941 l 0.795503,8.91207 11.626264,3.22737 0.0265,-0.008 v -5.90486 z" style="fill:#ebebeb;stroke-width:0.50961095"/><path d="m 39.028809,38.56685 -0.683898,7.60135 -6.330387,1.70873 v 5.90537 l 11.635947,-3.22482 0.08561,-0.95909 0.987626,-11.03154 z" style="fill:#ffffff;stroke-width:0.50961095"/><path d="m 32.02013,21.643177 v 5.675537 H 18.310067 l -0.114153,-1.275556 -0.258373,-2.877264 -0.136066,-1.522717 z m -0.01987,11.488669 v 5.676044 h -6.241205 l -0.113643,-1.275554 -0.258883,-2.877773 -0.136066,-1.522717 z" style="fill:#ebebeb;stroke-width:0.50961095"/></symbol><symbol id="js-logo"><path d="M 2.555e-4,0 H 63.999744 V 64 H 2.555e-4 Z" style="fill:#f0db4f;stroke-width:0.51124334"/><path d="M 58.762056,48.735807 C 58.293245,45.816096 56.389375,43.363662 50.74985,41.07687 48.790765,40.176571 46.606734,39.531893 45.955922,38.047242 45.72484,37.183241 45.694164,36.696537 45.84038,36.173535 c 0.41973,-1.697328 2.445789,-2.226465 4.051603,-1.739761 1.034246,0.346623 2.013277,1.143651 2.603763,2.415114 2.761737,-1.78833 2.756114,-1.776571 4.684524,-3.0056 -0.706029,-1.094572 -1.082814,-1.599681 -1.544979,-2.067979 -1.66103,-1.855303 -3.924303,-2.810816 -7.543906,-2.737709 l -1.885466,0.243863 c -1.806733,0.456541 -3.528602,1.404897 -4.538308,2.676359 -3.029627,3.437601 -2.165627,9.453913 1.520949,11.929864 3.631873,2.72595 8.96721,3.346088 9.648697,5.895147 0.663083,3.12063 -2.293438,4.130847 -5.232065,3.771954 -2.165627,-0.450405 -3.370117,-1.551112 -4.672252,-3.55263 -2.396709,1.387003 -2.396709,1.387003 -4.860903,2.80417 0.584352,1.277597 1.198355,1.855813 2.177896,2.962655 4.635955,4.702416 16.23709,4.471334 18.31785,-2.646196 0.08436,-0.244374 0.644678,-1.874218 0.194273,-4.386979 z M 34.792411,29.414387 h -5.986148 l -0.02454,15.476359 c 0,3.291384 0.170244,6.308743 -0.365028,7.233582 -0.87576,1.819004 -3.145169,1.593546 -4.179414,1.240788 -1.05265,-0.517379 -1.587922,-1.253058 -2.20806,-2.292927 -0.170244,-0.298566 -0.298055,-0.529648 -0.341,-0.547541 l -4.867037,2.980548 c 0.809299,1.66103 2.001518,3.102736 3.528602,4.039334 2.281168,1.36911 5.347094,1.788841 8.553613,1.05265 2.086895,-0.607868 3.887494,-1.867061 4.830227,-3.783712 1.362974,-2.512761 1.070543,-5.554148 1.058273,-8.918129 0.03068,-5.488198 5.12e-4,-10.975373 5.12e-4,-16.480952 z" style="fill:#323330;stroke-width:0.51124334"/></symbol><symbol id="ps-logo"><path d="M 63.530839,0.00532541 C 45.173156,-2.7459394e-4 26.897575,2.2540606e-4 8.539386,2.2540606e-4 c -2.6257116,0 -5.2965281,-0.001999996 -7.9222397,0.005600004 -0.1662292,5.14e-4 -0.5453128,0.07755 -0.5453128,0.119611 V 64.000012 H 63.928167 V 0.12543641 c 0,-0.04206 -0.209813,-0.120111 -0.397328,-0.120111 z M 57.07628,57.749182 c -16.542337,-0.0192 -33.079101,-0.0152 -49.621438,-0.0152 -0.798711,0 -0.7951634,-0.002 -0.7951634,-0.82456 V 7.3462704 c 5.068e-4,-0.814422 -0.0076,-0.614238 0.7997245,-0.614238 H 57.023067 c 0.830133,0 0.823544,-0.200691 0.823544,0.654274 V 32.136722 c 0,8.27091 -0.0035,16.54182 0.01825,24.81223 0.002,0.62995 -0.146466,0.80074 -0.788577,0.80023 z M 28.361202,19.728312 c -3.379317,-0.79212 -6.780933,-0.40138 -10.179002,-0.0542 -0.721172,0.074 -0.85902,0.38263 -0.856994,1.02271 0.02179,7.70685 -0.0223,15.41371 -0.0223,23.12055 v 0.4176 h 4.561167 v -9.05188 c 2.533981,0.19005 4.853081,0.14494 7.119981,-0.66391 3.633222,-1.29638 5.449074,-4.11062 5.252943,-8.21972 -0.158627,-3.31851 -2.24308,-5.71971 -5.875796,-6.57113 z m -0.989772,11.32386 c -1.618708,0.78908 -3.339788,0.77033 -5.070497,0.53619 -0.134808,-0.0182 -0.342087,-0.25897 -0.343102,-0.39733 -0.02027,-2.70173 -0.0152,-5.40295 -0.0152,-8.17868 1.586779,-0.24731 3.091458,-0.36793 4.592588,0.009 1.861463,0.46777 2.941446,1.68205 3.142644,3.50551 0.220964,2.00387 -0.631975,3.70924 -2.306429,4.52518 z m 16.876824,3.6013 c -0.744484,-0.40798 -1.560934,-0.68266 -2.334305,-1.04046 -0.714583,-0.33094 -1.435754,-0.65681 -2.115368,-1.05211 -0.473854,-0.27519 -0.689242,-0.75614 -0.689242,-1.32324 0,-0.95886 0.655795,-1.73172 1.775814,-1.82345 0.835707,-0.0684 1.703342,0.0177 2.530941,0.17231 0.697351,0.12974 1.358721,0.45561 2.068742,0.70698 l 0.895509,-3.17711 c -1.695234,-0.82304 -3.420369,-1.13269 -5.2124,-1.06934 -1.52343,0.0532 -2.946514,0.44142 -4.232763,1.31716 -2.403735,1.63645 -3.576461,5.98375 0.02585,8.31957 0.914767,0.59346 1.972958,0.96545 2.965265,1.43981 0.617278,0.29546 1.261416,0.54683 1.845245,0.89804 0.735868,0.44294 0.986226,1.16411 0.858513,1.99678 -0.125179,0.81848 -0.674039,1.33693 -1.437274,1.45653 -0.851418,0.1338 -1.756556,0.22046 -2.593784,0.073 -1.185396,-0.20829 -2.330756,-0.64921 -3.534397,-1.00295 -0.215895,0.80581 -0.421148,1.69726 -0.701406,2.56439 -0.153559,0.47537 -0.06335,0.71002 0.402903,0.89602 2.846675,1.13066 5.744029,1.36328 8.657094,0.36337 2.177197,-0.74753 3.504497,-2.29275 3.677314,-4.64681 0.168257,-2.29427 -0.865608,-3.97886 -2.852249,-5.06847 z" style="clip-rule:evenodd;fill:#80b5e2;fill-rule:evenodd;stroke-width:0.5067963"/></symbol><symbol id="git-logo"><path d="M 62.801312,29.149421 34.857274,1.206901 c -1.608188,-1.609201 -4.218198,-1.609201 -5.828921,0 l -5.801543,5.803065 7.360552,7.360552 c 1.711108,-0.577467 3.672165,-0.190123 5.035474,1.173187 a 4.8975712,4.8975712 0 0 1 1.162539,5.0664 l 7.093874,7.094887 c 1.716178,-0.591663 3.697007,-0.209389 5.066907,1.163554 1.916439,1.91492 1.916439,5.01925 0,6.935184 a 4.9041621,4.9041621 0 0 1 -6.937212,0 4.9061901,4.9061901 0 0 1 -1.067224,-5.334094 l -6.61527,-6.615777 -0.001,17.410713 a 4.9219069,4.9219069 0 0 1 1.2974,0.926787 c 1.915934,1.91492 1.915934,5.018236 0,6.937212 -1.915934,1.91492 -5.021278,1.91492 -6.935184,0 -1.915427,-1.918469 -2.072595,-5.021785 -0.157675,-6.937212 0.473533,-0.473026 0.940475,-0.830458 1.44747,-1.069759 V 23.549662 C 29.470452,23.31036 29.004017,22.955464 28.52947,22.479395 27.078957,21.02939 26.807715,18.900011 27.551984,17.117417 L 20.335924,9.860798 1.1948371,29.020137 c -1.60970898,1.610723 -1.59956898,4.220733 0.01014,5.830442 l 27.9486039,27.94252 c 1.608694,1.609201 4.220732,1.609201 5.831962,0 L 62.799284,34.98037 c 1.609709,-1.610216 1.61123,-4.221747 0.002,-5.830949 z" style="fill:#f34f29;stroke-width:0.50699496"/></symbol><symbol id="net-logo"><path style="color:#000000;font-weight:400;line-height:normal;font-family:sans-serif;text-indent:0;text-align:start;text-decoration:none;text-decoration-line:none;text-decoration-style:solid;text-decoration-color:#000000;text-transform:none;overflow:visible;isolation:auto;mix-blend-mode:normal;fill:#2b4255;stroke-width:2.28571439" overflow="visible" font-weight="400" d="M 1.142857,0 A 1.1428571,1.1428571 0 0 0 0,1.1428571 V 21.714286 a 1.1428571,1.1428571 0 0 0 1.142857,1.142857 H 30.857143 A 1.1428571,1.1428571 0 0 0 32,21.714286 V 1.1428571 A 1.1428571,1.1428571 0 0 0 30.857143,0 Z M 2.285714,2.2857143 H 29.714286 V 20.571429 H 2.285714 Z"/><path style="color:#000000;font-weight:400;line-height:normal;font-family:sans-serif;text-indent:0;text-align:start;text-decoration:none;text-decoration-line:none;text-decoration-style:solid;text-decoration-color:#000000;text-transform:none;overflow:visible;isolation:auto;mix-blend-mode:normal;fill:#2b4255;fill-rule:evenodd;stroke-width:2.28571439" overflow="visible" font-weight="400" d="m 11.428571,22.628571 v 4.8 h 2.285715 v -4.8 z m 6.857143,0 v 4.8 h 2.285715 v -4.8 z m -9.028571,4.8 v 2.285715 h 13.714286 v -2.285715 z"/><path d="M 4.571429,4.5714286 H 27.428571 V 18.285714 H 4.571429 Z" style="fill:#f8b84e;stroke-width:2.28571439"/><path style="color:#000000;font-weight:400;line-height:normal;font-family:sans-serif;text-indent:0;text-align:start;text-decoration:none;text-decoration-line:none;text-decoration-style:solid;text-decoration-color:#000000;text-transform:none;overflow:visible;isolation:auto;mix-blend-mode:normal;fill:#2b4255;stroke-width:2.28571439" overflow="visible" font-weight="400" d="M 33.142857,34.285714 A 1.1428571,1.1428571 0 0 0 32,35.428571 V 56 a 1.1428571,1.1428571 0 0 0 1.142857,1.142857 H 62.857143 A 1.1428571,1.1428571 0 0 0 64,56 V 35.428571 a 1.1428571,1.1428571 0 0 0 -1.142857,-1.142857 z m 1.142857,2.285715 H 61.714286 V 54.857143 H 34.285714 Z"/><path style="color:#000000;font-weight:400;line-height:normal;font-family:sans-serif;text-indent:0;text-align:start;text-decoration:none;text-decoration-line:none;text-decoration-style:solid;text-decoration-color:#000000;text-transform:none;overflow:visible;isolation:auto;mix-blend-mode:normal;fill:#2b4255;fill-rule:evenodd;stroke-width:2.28571439" overflow="visible" font-weight="400" d="m 43.428571,56.914286 v 4.8 h 2.285715 v -4.8 z m 6.857143,0 v 4.8 h 2.285715 v -4.8 z m -9.028571,4.8 V 64 h 13.714286 v -2.285714 z"/><path d="M 36.571429,38.857143 H 59.428571 V 52.571429 H 36.571429 Z" style="fill:#f8b84e;stroke-width:2.28571439"/><path style="color:#000000;font-weight:400;line-height:normal;font-family:sans-serif;text-indent:0;text-align:start;text-decoration:none;text-decoration-line:none;text-decoration-style:solid;text-decoration-color:#000000;text-transform:none;overflow:visible;isolation:auto;mix-blend-mode:normal;fill:#2b4255;fill-rule:evenodd;stroke-width:2.28571439" overflow="visible" font-weight="400" d="m 34.285714,10.285714 v 2.285715 h 4.571429 v -2.285715 z m 6.857143,0 v 2.285715 h 4.571429 v -2.285715 z m 6.857143,0 v 2.285715 h 4.571429 v -2.285715 z m 2.285714,3.428572 v 4.571428 h 2.285715 v -4.571428 z m 0,6.857143 v 4.571428 h 2.285715 v -4.571428 z m 0,6.857142 V 32 h 2.285715 V 27.428571 Z M 11.428571,44.571429 v 2.285714 H 16 v -2.285714 z m 6.857143,0 v 2.285714 h 4.571429 v -2.285714 z m 6.857143,0 v 2.285714 h 4.571429 V 44.571429 Z M 11.428571,32 v 4.571429 h 2.285715 V 32 Z m 0,6.857143 v 4.571428 h 2.285715 v -4.571428 z"/></symbol><symbol id="eng-logo"><path d="M 0.410592,0 H 63.659296 V 63.989517 H 0.41234 Z" style="fill:#00237d;fill-opacity:0.9020004;stroke-width:1.7472018"/><path d="M 64,0 V 64 H 0 V 0 Z M 57.809664,6.1903358 H 6.190336 V 57.809664 h 51.619328 z" style="fill:#cf142b;stroke-width:1.7472018"/><path d="m 10.213923,14.625991 h 16.394813 v 6.752662 H 16.288998 v 6.450996 h 9.704341 v 6.752661 h -9.704341 v 7.936117 h 10.666885 v 6.752662 h -16.74196 z" style="fill:#ffffff;stroke-width:1.44077945"/><path d="m 32.305105,14.625991 h 6.78515 l 8.568222,23.761943 V 14.625991 h 5.759488 v 34.645098 h -6.78515 L 38.064593,25.509146 v 23.761943 h -5.759488 z" style="fill:#ffffff;stroke-width:1.44077945"/></symbol></desc><svg id="html" viewBox="0 0 64 64"><use xlink:href="#html-logo"></use></svg><svg id="css" viewBox="0 0 64 64"><use href="#css-logo"></use></svg><svg id="js" viewBox="0 0 64 64"><use href="#js-logo"></use></svg><svg id="ps" viewBox="0 0 64 64"><use href="#ps-logo"></use></svg><svg id="git" viewBox="0 0 64 64"><use href="#git-logo"></use></svg><svg id="net" viewBox="0 0 64 64"><use href="#net-logo"></use></svg><svg id="eng" viewBox="0 0 64 64"><use href="#eng-logo"></use></svg></svg>
